<?xml version="1.0" encoding="UTF-8" standalone="no"?>
<svg width="100" height="100" xmlns="http://www.w3.org/2000/svg">
  <style>
    .control {
        stroke: #121212;
        stroke-width: 5px;
        stroke-linecap: round;
    }
    .common-control {
      fill: #3f51b5; 
    }
    .special-control {
      fill: #1a237e;
    }
    .control-text {
      fill: none;
      stroke: #ffffff;
      stroke-width: 5;
      stroke-linecap: round;
    }

    @media (prefers-color-scheme: dark) {
        .common-control {
            fill: #252525; 
        }
        .special-control {
            fill: #121212;
        }
        .control-text {
            stroke: #9fa8da;
        }
    }
  </style>

  <g>
    <path class="control common-control" d="M 50 50 h -50 v -40 s 0 -10 10 -10 h 40 Z"/>
    <path class="control common-control" d="M 50 50 h 50 v -40 s 0 -10 -10 -10 h -40 Z"/>
    <path class="control common-control" d="M 50 50 h -50 v 40 s 0 10 10 10 h 40 Z"/>
    <path class="control special-control" d="M 50 50 h 50 v 40 s 0 10 -10 10 h -40 Z"/>
  </g>

  <g>
    <path id="plus" class="control-text" d="M 25, 25 m -10 0 h 20 m -10 -10 v 20" />
    <path id="equals" class="control-text" d="M 75, 75 m -10 5 h 20 m -20 -10 h 20" />
    <path id="A" class="control-text" d="M 25, 75 m -10, 12 l 10, -24 l 10, 24 m -4, -8 h -12" />
    <path id="F" class="control-text" d="M 75, 25 m -10, 12 v -24 h 14 m -14, 12 h 10" />
  </g>
</svg>
